<svg width="21" height="19" viewBox="0 0 21 19" fill="none" xmlns="http://www.w3.org/2000/svg">
<path d="M15.351 12.8452V6.76391C15.3505 6.5625 15.2618 6.36948 15.1044 6.22706C14.947 6.08464 14.7336 6.00441 14.511 6.00391H8.80552C8.58292 6.00446 8.36962 6.08471 8.21222 6.22711C8.05482 6.36952 7.96612 6.56251 7.96552 6.76391V14.1511C7.96612 14.3525 8.05482 14.5455 8.21222 14.6879C8.36962 14.8303 8.58292 14.9106 8.80552 14.9111H15.351" stroke="#020202" stroke-width="0.7" stroke-miterlimit="10" stroke-linecap="round"/>
<path d="M7.0457 12.9959H6.38399C6.18926 12.9953 6.00269 12.925 5.865 12.8005C5.7273 12.6759 5.64965 12.5071 5.64899 12.3309V4.75484C5.64965 4.57866 5.7273 4.40986 5.865 4.28528C6.00269 4.1607 6.18926 4.09044 6.38399 4.08984H12.2988C12.4936 4.09044 12.6801 4.1607 12.8178 4.28528C12.9555 4.40986 13.0332 4.57866 13.0338 4.75484V5.22091" stroke="#020202" stroke-width="0.7" stroke-miterlimit="10" stroke-linecap="round"/>
</svg>
